<svg width="71" height="99" viewBox="0 0 71 99" fill="none" xmlns="http://www.w3.org/2000/svg">
<path d="M70.9995 94.8231C70.9995 95.4277 69.9119 96.0032 67.9573 96.5216C65.0139 97.3012 60.1122 97.9515 53.9998 98.3939C52.6613 98.4902 51.2631 98.5764 49.8168 98.6474C48.9008 98.6947 47.9644 98.737 47.0078 98.7742C43.4484 98.9174 39.633 98.9947 35.6654 98.9947H35.6477C33.162 98.9947 30.7358 98.9643 28.3946 98.9072C25.5159 98.8363 22.7652 98.7234 20.1907 98.5751C19.1234 98.5143 18.0874 98.4467 17.0826 98.3723C16.5206 98.3318 15.9713 98.2895 15.4347 98.2456C12.2936 97.9921 9.52523 97.6688 7.24484 97.3063C6.66175 97.2125 6.11246 97.1166 5.59697 97.0185C4.75656 96.8588 4.00488 96.6915 3.35081 96.5178C1.39238 95.9994 0.308594 95.4239 0.308594 94.8193C0.308594 93.032 9.81551 91.5071 23.1746 90.91L24.6615 90.8479C28.1233 90.7212 31.8196 90.6426 35.6591 90.6426C36.265 90.6426 36.8667 90.6426 37.4641 90.6426C38.7596 90.6502 40.0352 90.6658 41.291 90.6895C45.3219 90.7668 49.1247 90.9227 52.5789 91.1471C53.0631 91.1775 53.5401 91.2096 54.01 91.2434C64.1925 91.985 70.9995 93.3096 70.9995 94.8231Z" fill="#CEEAE9"/>
<path d="M67.9542 96.522C65.0147 97.3015 60.1129 97.9518 54.0006 98.3942C52.662 98.4905 51.2639 98.5767 49.8176 98.6477C48.9015 98.695 47.9652 98.7373 47.0086 98.7745C43.4492 98.9177 39.6338 98.995 35.6662 98.995H35.6485C33.1627 98.995 30.7365 98.9646 28.3953 98.9076C25.5166 98.8366 22.7659 98.7238 20.1915 98.5755C19.1242 98.5146 18.0881 98.447 17.0833 98.3727C16.5214 98.3321 15.9721 98.2898 15.4355 98.2459C12.2944 97.9924 9.52599 97.6691 7.24559 97.3066C6.6625 97.2128 6.11322 97.1169 5.59773 97.0189C4.75732 96.8592 4.00564 96.6918 3.35156 96.5182C7.17968 95.5041 14.3301 94.703 23.1716 94.3075L24.6585 94.2454C28.1202 94.1186 31.8165 94.04 35.6561 94.04C36.262 94.04 36.8636 94.04 37.4611 94.04C38.7566 94.0476 40.0322 94.0633 41.288 94.0869C45.3189 94.1643 49.1217 94.3202 52.5758 94.5445C53.0601 94.575 53.5371 94.6071 54.0069 94.6409C60.1129 95.0896 65.0147 95.7424 67.9542 96.522Z" fill="#364E4C"/>
<path d="M0.298828 4.17037C0.298828 3.56573 1.38642 2.99024 3.34104 2.4718C6.28438 1.69223 11.1836 1.03942 17.2985 0.600837C18.637 0.5045 20.0352 0.418304 21.4815 0.347319C22.3975 0.300841 23.3339 0.258588 24.2905 0.22056C27.8499 0.0773229 31.6653 0 35.6329 0H35.6481C38.1338 0 40.56 0.0304222 42.9012 0.0874637C45.7799 0.158449 48.5306 0.271264 51.1051 0.419572C52.1724 0.480416 53.2084 0.54802 54.2132 0.622386C54.7743 0.662948 55.3236 0.705201 55.861 0.749145C59.0021 1.00266 61.7705 1.3259 64.0509 1.68843C64.634 1.78223 65.1833 1.87814 65.6988 1.97617C66.5392 2.13589 67.2909 2.30321 67.945 2.47687C69.9034 2.99531 70.9872 3.5708 70.9872 4.17544C70.9872 5.96274 61.4803 7.48764 48.1211 8.08468L46.6343 8.14679C43.1725 8.27989 39.4762 8.35214 35.6367 8.35214C35.0308 8.35214 34.4291 8.35214 33.8316 8.35214C32.5361 8.34453 31.2605 8.3289 30.0048 8.30524C25.9738 8.22792 22.1711 8.072 18.7232 7.84764C18.239 7.81722 17.762 7.78511 17.2921 7.7513C7.10578 7.0085 0.298828 5.68387 0.298828 4.17037Z" fill="#CEEAE9"/>
<path d="M3.3457 2.4718C6.28524 1.69223 11.1845 1.03942 17.2993 0.600837C18.6379 0.5045 20.036 0.418304 21.4824 0.347319C22.3984 0.300841 23.3347 0.258588 24.2913 0.22056C27.8507 0.0773229 31.6662 0 35.6337 0H35.6489C38.1347 0 40.5608 0.0304222 42.9021 0.0874637C45.7808 0.158449 48.5314 0.271264 51.1059 0.419572C52.1732 0.480416 53.2093 0.548021 54.214 0.622386C54.7752 0.662949 55.3244 0.705202 55.8619 0.749145C59.003 1.00266 61.7714 1.3259 64.0518 1.68843C64.6349 1.78223 65.1842 1.87814 65.6997 1.97617C66.5401 2.13589 67.2917 2.30321 67.9458 2.47687C64.1177 3.49094 56.9672 4.29205 48.1258 4.68754L46.6389 4.74965C43.1771 4.87641 39.4809 4.955 35.6413 4.955C35.0354 4.955 34.4337 4.955 33.8363 4.955C32.5408 4.9474 31.2652 4.93176 30.0094 4.9081C25.9785 4.83078 22.1757 4.67487 18.7279 4.4505C18.2437 4.42008 17.7666 4.38797 17.2968 4.35417C11.1845 3.90417 6.28524 3.25136 3.3457 2.4718Z" fill="#364E4C"/>
<path d="M11.1614 14.7344H9.50977V18.5891H11.1614V14.7344Z" fill="url(#paint0_linear_217_8951)"/>
<path d="M51.0814 26.7979H49.4297V30.6526H51.0814V26.7979Z" fill="url(#paint1_linear_217_8951)"/>
<path d="M2.1668 17.6904H1.21484V19.9112H2.1668V17.6904Z" fill="url(#paint2_linear_217_8951)"/>
<path d="M11.6375 40.04H10.6855V42.2609H11.6375V40.04Z" fill="url(#paint3_linear_217_8951)"/>
<path d="M52.3836 13.624H51.4316V15.8448H52.3836V13.624Z" fill="url(#paint4_linear_217_8951)"/>
<path d="M62.0027 27.2041H61.0508V29.4249H62.0027V27.2041Z" fill="url(#paint5_linear_217_8951)"/>
<path d="M59.7371 42.6748H58.7852V44.8956H59.7371V42.6748Z" fill="url(#paint6_linear_217_8951)"/>
<path d="M28.3952 96.5223V98.9129C25.5165 98.8419 22.7659 98.7291 20.1914 98.5808V96.412H21.9572V93.1631H23.1677V89.2539H24.6546V93.9338H26.2289V96.5223H28.3952Z" fill="url(#paint7_linear_217_8951)"/>
<path d="M47.0064 96.7426V98.7796C43.4471 98.9228 39.6316 99.0001 35.6641 99.0001V96.1911H36.9317V93.3289H38.3095V92.1716H39.2463V91.0714H37.4539V88.0976H38.7481V89.2536H39.7394V85.8945H41.2807V91.5112H42.8728V92.8333H43.9731V94.7055H42.4926V95.6968H45.9074V96.7426H47.0064Z" fill="url(#paint8_linear_217_8951)"/>
<path d="M54.0014 89.75V98.395C52.6628 98.4913 51.2647 98.5775 49.8184 98.6485V96.3541H51.1392V93.0267H52.5716V89.75H54.0014Z" fill="url(#paint9_linear_217_8951)"/>
<path d="M17.0834 95.8164V98.3782C16.5214 98.3376 15.9722 98.2954 15.4355 98.2514V95.8177L17.0834 95.8164Z" fill="url(#paint10_linear_217_8951)"/>
<path d="M35.9935 85.5176H34.3418V89.3723H35.9935V85.5176Z" fill="url(#paint11_linear_217_8951)"/>
<path d="M50.2552 87.1523H48.6035V91.0071H50.2552V87.1523Z" fill="url(#paint12_linear_217_8951)"/>
<path d="M60.9134 84.7842H59.2617V88.6389H60.9134V84.7842Z" fill="url(#paint13_linear_217_8951)"/>
<path d="M18.345 0.944336H16.6934V4.79907H18.345V0.944336Z" fill="url(#paint14_linear_217_8951)"/>
<path d="M29.3665 7.07129H27.7148V10.926H29.3665V7.07129Z" fill="url(#paint15_linear_217_8951)"/>
<path d="M62.3548 5.14453H60.7031V8.99927H62.3548V5.14453Z" fill="url(#paint16_linear_217_8951)"/>
<path d="M7.24162 94.4287V97.3099C6.65852 97.2161 6.10924 97.1202 5.59375 97.0222V94.4287H7.24162Z" fill="url(#paint17_linear_217_8951)"/>
<path d="M17.5191 90.6445H16.2578V93.5866H17.5191V90.6445Z" fill="url(#paint18_linear_217_8951)"/>
<path d="M42.532 0.650391H41.5801V2.87121H42.532V0.650391Z" fill="url(#paint19_linear_217_8951)"/>
<path d="M45.5203 89.0781H44.5684V91.2989H45.5203V89.0781Z" fill="url(#paint20_linear_217_8951)"/>
<path d="M12.8118 80.333H11.1602V84.1877H12.8118V80.333Z" fill="#6FC3A0"/>
<path d="M65.263 67.7793H63.6113V71.634H65.263V67.7793Z" fill="#6FC3A0"/>
<path d="M4.99346 30.998H3.3418V34.8528H4.99346V30.998Z" fill="#6FC3A0"/>
<path d="M4.99346 84.793H3.3418V88.6477H4.99346V84.793Z" fill="#6FC3A0"/>
<path d="M21.7742 85.2256H20.8223V87.4464H21.7742V85.2256Z" fill="#6FC3A0"/>
<path d="M39.409 81.4893H38.457V83.7101H39.409V81.4893Z" fill="#6FC3A0"/>
<path d="M62.4793 73.3262H61.5273V75.547H62.4793V73.3262Z" fill="#6FC3A0"/>
<path d="M21.7053 33.0512C21.7053 33.0512 20.6089 32.9942 21.282 35.5585C21.955 38.1229 21.6901 38.4512 18.7252 41.1777C15.7603 43.9043 11.2008 45.8209 11.9538 51.4452C12.7067 57.0695 47.2827 69.5134 53.7753 64.1452C60.2679 58.7769 60.9334 54.22 59.733 49.7264C58.5326 45.2328 51.4354 44.3429 50.7749 39.7492C50.1145 35.1554 47.8367 36.3837 46.332 35.5661C44.8274 34.7485 45.3066 34.1566 45.0226 32.4048C44.7387 30.653 41.5063 23.3593 40.2616 22.6443C39.0168 21.9294 27.1243 21.2842 25.4308 24.9602C23.7373 28.6362 21.7053 33.0512 21.7053 33.0512Z" fill="url(#paint21_linear_217_8951)"/>
<path d="M42.4835 37.0474C42.4746 38.6953 42.4226 39.8995 42.3567 40.1112C42.1032 40.8958 40.8698 42.0126 37.2775 43.2497C37.1748 43.2852 37.0671 43.3195 36.9568 43.3537C33.2149 44.5008 25.39 44.7075 25.5903 43.7035C25.6199 43.3816 25.6246 43.0578 25.6043 42.7351C25.5764 41.7413 25.4775 40.1226 25.3507 38.3163C25.2772 37.2566 25.1935 36.131 25.1099 35.0307C24.8374 31.4345 24.5534 28.0944 24.5534 28.0944C24.5534 28.0944 24.1376 27.3022 26.3065 25.9117C27.1938 25.3438 28.5083 24.677 30.4591 23.9228C36.1328 21.7299 38.6667 22.8238 40.2639 23.7149C40.5605 23.881 40.8255 24.0407 41.0726 24.17C41.8028 24.5503 42.1843 27.8676 42.358 31.3762C42.4594 33.3702 42.4936 35.4274 42.4835 37.0474Z" fill="#F7AC86"/>
<path d="M25.1118 35.0292C24.8393 31.433 24.5554 28.0929 24.5554 28.0929C24.5554 28.0929 24.1396 27.3007 26.3084 25.9102C26.3084 25.9102 26.7242 33.3674 25.1118 35.0292Z" fill="url(#paint22_linear_217_8951)"/>
<path d="M42.3655 31.3752C40.5567 30.081 40.3032 25.4086 40.2715 23.7139C40.5681 23.8799 40.833 24.0396 41.0802 24.1689C41.804 24.5581 42.1855 27.8665 42.3655 31.3752Z" fill="url(#paint23_linear_217_8951)"/>
<path d="M24.6902 29.7339C24.6902 29.7339 22.9435 29.3181 22.008 30.8317C21.0725 32.3452 21.7139 35.5027 25.1516 35.5623L24.7016 29.8708L24.6902 29.7339Z" fill="#F7AC86"/>
<path d="M24.8226 31.3753C24.6203 31.2222 24.3864 31.1163 24.1379 31.0652C23.8895 31.0141 23.6327 31.0191 23.3864 31.0799C22.5055 31.2726 22.6157 32.4008 22.6157 32.4008C22.6157 32.4008 23.1228 31.2422 24.8974 32.2613L24.8226 31.3753Z" fill="#D27358"/>
<path d="M42.0547 27.5444C42.0547 27.5444 42.6885 26.6875 44.0828 27.0184C45.4772 27.3492 45.9753 31.2876 42.4071 32.6224L42.0547 27.5444Z" fill="#F7AC86"/>
<path d="M42.168 29.1452C42.168 29.1452 42.642 28.2364 43.5103 28.3188C44.3786 28.4012 44.191 29.2695 44.191 29.2695C44.191 29.2695 43.774 28.7117 43.1884 29.2695C42.6028 29.8272 42.2706 30.2189 42.2706 30.2189L42.168 29.1452Z" fill="#D27358"/>
<path d="M27.9007 28.6841C27.9007 28.6841 28.3139 27.2898 29.4966 26.9425C30.6792 26.5952 31.0113 27.3405 30.5981 27.5446C30.1849 27.7487 29.0567 28.4091 28.5611 28.8489C28.0655 29.2888 27.7029 29.1506 27.9007 28.6841Z" fill="url(#paint24_linear_217_8951)"/>
<path d="M39.5988 26.8498C39.5988 26.8498 38.8839 25.889 37.8369 25.9105C36.7898 25.9321 36.9293 26.7788 37.2867 26.8498C37.6442 26.9208 38.1677 26.7433 38.7736 26.9423C39.3795 27.1413 39.6546 27.192 39.5988 26.8498Z" fill="url(#paint25_linear_217_8951)"/>
<path d="M30.3993 32.9248C30.5939 32.9248 30.7517 32.502 30.7517 31.9805C30.7517 31.4589 30.5939 31.0361 30.3993 31.0361C30.2046 31.0361 30.0469 31.4589 30.0469 31.9805C30.0469 32.502 30.2046 32.9248 30.3993 32.9248Z" fill="#08080E"/>
<path d="M34.127 28.3145C34.127 28.3145 36.5772 34.769 36.055 35.7324C35.5327 36.6957 35.0409 36.228 34.7607 35.2101C34.4806 34.1923 34.127 28.3145 34.127 28.3145Z" fill="#D27358"/>
<path d="M30.0779 34.4658H28.0332C27.7301 34.4658 27.4844 34.7113 27.4844 35.0141C27.4844 35.3168 27.7301 35.5623 28.0332 35.5623H30.0779C30.381 35.5623 30.6267 35.3168 30.6267 35.0141C30.6267 34.7113 30.381 34.4658 30.0779 34.4658Z" fill="#EC7571"/>
<path d="M40.2449 33.4762L38.221 33.7667C37.921 33.8098 37.7126 34.0877 37.7556 34.3874C37.7987 34.6871 38.0768 34.8951 38.3769 34.8521L40.4007 34.5615C40.7008 34.5184 40.9091 34.2405 40.8661 33.9408C40.8231 33.6411 40.545 33.4331 40.2449 33.4762Z" fill="#EC7571"/>
<path d="M44.0426 24.4172C44.0426 24.4172 37.2496 20.7766 30.7164 22.6425C24.1833 24.5084 23.5076 29.741 23.5076 29.741C23.5076 29.741 19.9723 28.0285 18.9811 24.6326C17.9898 21.2368 19.933 17.0664 23.7523 16.2818C25.4471 15.9332 26.8617 16.0004 28.1267 15.9902C29.3018 15.9813 30.3476 15.9066 31.3718 15.3742C31.7587 15.1716 32.1189 14.9216 32.4441 14.6301C34.9223 12.441 36.5131 11.3673 39.3107 11.4497C42.1082 11.5321 49.1979 14.838 44.0426 24.4172Z" fill="#6FC3A0"/>
<path d="M53.774 72.019C53.774 72.8467 53.7512 74.7823 53.722 76.8992C53.6726 80.5473 53.6054 84.738 53.6054 84.738L51.8473 85.3439L51.7928 82.8087L50.0853 83.0838V80.6082L47.8823 80.6639V84.4667H45.7907V82.5907H44.0884V85.5644H42.0513V79.0123H39.4084V77.0361H37.0951V79.5079H34.783V83.3107H32.9665V82.0431H31.3694V89.641H29.1663V88.3734H27.4842V90.1911H25.863V84.7937H24.2075V81.0493H22.8892V78.2961H23.8805V75.0472H22.1185V73.6136H20.5771V82.5881H18.4843V77.1945H17.1077V74.5732L13.3633 47.7992L13.5648 47.7016C14.57 47.2224 19.075 45.0967 21.2794 44.4743C23.7702 43.772 44.4762 40.9187 48.5046 43.2435C51.1387 44.7646 52.585 55.6582 53.2682 63.6352C53.6295 67.8435 53.774 71.2394 53.774 72.019Z" fill="#6FC3A0"/>
<path d="M22.3531 43.9524C22.3531 43.9524 21.4988 43.9524 21.2922 44.7776C21.0855 45.6028 23.352 47.3749 29.387 47.7552C35.422 48.1354 41.5178 46.3101 44.0416 44.7814C46.5653 43.2527 46.4829 41.8495 46.1965 41.4362C45.91 41.023 44.8338 41.1827 44.8338 41.1827C44.8338 41.1827 31.0843 46.5522 27.734 45.9324C24.3838 45.3125 22.3531 43.9524 22.3531 43.9524Z" fill="white"/>
<path d="M42.4823 37.0469C42.4735 38.6947 42.4215 39.899 42.3556 40.1106C42.1021 40.8953 40.8687 42.012 37.2763 43.2492C37.1737 43.2847 37.0659 43.3189 36.9556 43.3531C33.9261 43.6181 30.7736 43.8411 29.3083 43.7727C28.0128 43.6978 26.7489 43.3437 25.6031 42.7345C25.5752 41.7408 25.4764 40.122 25.3496 38.3157C25.3496 38.3157 26.1216 41.851 29.7152 42.2617C33.3088 42.6724 39.6024 41.5975 39.6024 41.5975C39.6024 41.5975 41.5697 39.6315 42.4823 37.0469Z" fill="#EC7571"/>
<path d="M43.8251 26.117C43.7136 26.6126 43.5995 26.946 43.5995 26.946C42.394 26.9156 42.0556 27.5443 42.0556 27.5443L41.9288 26.657C41.8021 25.7697 38.6597 23.3752 32.4663 24.4755C26.2728 25.5757 24.6617 29.433 24.6617 29.433L24.6871 29.7385C24.3343 29.6687 23.9713 29.6687 23.6185 29.7385C23.5779 29.7448 23.5488 29.7512 23.5323 29.755H23.5184L23.5044 29.7461C23.4398 29.7017 23.1558 29.4672 22.7223 28.552C22.2267 27.5063 21.9516 25.2753 23.7491 23.4031C25.5465 21.5309 31.3394 19.5762 35.9648 19.5217C40.5903 19.4672 42.5994 21.2558 43.597 22.6438C44.2599 23.5565 44.0457 25.1473 43.8251 26.117Z" fill="#FABC68"/>
<path d="M43.8246 26.118C43.4189 26.0534 43.1274 25.9279 43.1908 25.6985C43.3644 25.0381 43.3479 24.1698 42.0575 24.1698C40.7671 24.1698 41.4073 23.427 41.117 22.2684C40.8267 21.1098 39.5895 21.4837 38.6807 22.1416C37.7718 22.7995 36.6525 22.3064 35.6245 21.1504C34.5965 19.9943 32.6051 20.7016 32.107 22.0237C31.6088 23.3458 30.5022 23.304 28.5577 23.015C26.6132 22.726 25.9566 23.593 25.4369 24.9557C24.9172 26.3183 24.3481 25.8265 23.732 26.5059C23.116 27.1854 23.1882 27.5568 23.7472 28.6304C24.1744 29.4531 23.8119 29.6724 23.6205 29.7307C23.5922 29.7385 23.5634 29.7441 23.5343 29.7472H23.5203L23.5064 29.7383C23.4417 29.6939 23.1578 29.4594 22.7243 28.5442C22.2287 27.4985 21.9536 25.2675 23.751 23.3953C25.5485 21.523 31.3413 19.5684 35.9668 19.5139C40.5922 19.4594 42.6013 21.248 43.5989 22.636C44.2593 23.5575 44.0451 25.1483 43.8246 26.118Z" fill="#CEEAE9"/>
<path opacity="0.4" d="M27.1546 64.6493C26.9493 65.3921 24.5105 70.0125 22.1185 73.9978V73.6175H20.5771V76.4759C19.7785 77.708 19.0471 78.7373 18.4843 79.3673V77.1947H17.1077V74.5733L13.3633 47.7993L13.5648 47.7017C16.0569 47.4875 18.9673 48.1555 20.0131 51.9937C21.9765 59.2025 24.4686 57.2707 25.1519 58.2049C25.8351 59.1391 27.483 63.4603 27.1546 64.6493Z" fill="#364E4C"/>
<path opacity="0.4" d="M31.3707 15.375C31.3707 15.375 28.2715 18.0154 25.7109 18.7975C25.7109 18.7975 27.2523 17.7226 28.1257 15.9872C29.3008 15.9822 30.3465 15.9074 31.3707 15.375Z" fill="#364E4C"/>
<path d="M23.9779 40.6467C23.9779 40.6467 26.9098 42.3782 34.4672 41.1816C42.0246 39.985 41.9865 38.3371 43.4278 38.3156C44.869 38.294 45.4952 40.6061 45.1428 41.9244C44.7904 43.2427 43.2414 44.8563 37.7388 46.1366C32.2362 47.4169 27.1938 47.0036 25.153 46.1366C23.1121 45.2696 22.2996 45.4737 22.3541 43.9525C22.4086 42.4314 22.9866 39.862 23.9779 40.6467Z" fill="#CEEAE9"/>
<path d="M26.7432 44.7765C27.2907 44.7765 27.7345 44.3327 27.7345 43.7852C27.7345 43.2377 27.2907 42.7939 26.7432 42.7939C26.1958 42.7939 25.752 43.2377 25.752 43.7852C25.752 44.3327 26.1958 44.7765 26.7432 44.7765Z" fill="#FABC68"/>
<path d="M25.2992 66.6233C23.8123 68.7705 18.0283 76.6562 11.2581 76.2455C4.48795 75.8348 6.42609 61.0066 8.24381 56.5472C8.89408 54.95 9.56084 53.3693 10.2428 52.0016C11.466 49.5514 12.7399 47.7806 14.0646 47.8021C14.0646 47.8021 17.1207 46.6385 18.0702 51.9243C19.0196 57.2101 18.0702 60.3069 18.0702 60.3069C18.0702 60.3069 22.6956 58.9442 23.6045 58.82C24.5133 58.6958 25.4627 60.0179 25.7936 60.9673C26.1244 61.9167 26.7861 64.476 25.2992 66.6233Z" fill="#6FC3A0"/>
<path d="M18.0709 60.3035C18.0709 60.3035 18.4842 59.6013 16.7083 59.5595C14.9324 59.5176 10.5136 61.0058 7.78826 63.0288C5.06295 65.0519 5.92111 67.2753 5.92111 67.2753C5.92111 67.2753 10.6416 60.287 18.0709 60.3035Z" fill="#CEEAE9"/>
<path d="M18.0717 60.3051C18.0717 60.3051 17.7003 59.3962 14.0243 60.6765C10.3483 61.9567 6.83835 65.0953 6.09554 66.7888C5.35274 68.4823 6.41624 69.305 6.41624 69.305C6.41624 69.305 9.36085 64.639 10.8034 63.3169C12.2459 61.9948 15.8002 60.3051 18.0717 60.3051Z" fill="white"/>
<path d="M35.168 47.502C35.168 47.502 38.4434 63.7271 37.0947 79.5073" stroke="#364E4C" stroke-width="0.5" stroke-miterlimit="10"/>
<path opacity="0.4" d="M53.7753 72.0193C53.7753 72.847 53.7525 74.7826 53.7233 76.8995C47.9558 74.1907 43.3164 64.6495 43.3164 64.6495C45.7324 57.2722 51.5139 61.9876 53.2644 63.6355C53.6308 67.8439 53.7753 71.2397 53.7753 72.0193Z" fill="#364E4C"/>
<path d="M18.0714 60.3038C18.0714 60.3038 8.86363 62.2052 6.9014 71.2672C6.9014 71.2672 5.35241 69.8842 7.78871 66.0853C10.225 62.2863 15.5109 59.973 18.0714 60.3038Z" fill="#CEEAE9"/>
<path d="M14.4801 53.491C14.3533 54.5646 13.9845 56.7525 13.2417 57.0009C12.6624 57.1936 9.55551 57.0605 8.24609 56.5446C8.89637 54.9474 9.56312 53.3668 10.2451 51.999C10.2451 51.999 12.0805 52.2982 13.1542 52.2982C14.2278 52.2982 14.6069 52.4173 14.4801 53.491Z" fill="#CEEAE9"/>
<path d="M11.9537 55.3722C12.2862 55.3722 12.5558 55.1026 12.5558 54.7701C12.5558 54.4375 12.2862 54.168 11.9537 54.168C11.6211 54.168 11.3516 54.4375 11.3516 54.7701C11.3516 55.1026 11.6211 55.3722 11.9537 55.3722Z" fill="white"/>
<path d="M58.1847 66.5157C56.367 74.665 53.6138 74.9401 49.2634 70.3184C44.913 65.6968 47.2784 55.9478 46.8968 52.0005C46.5153 48.0532 48.1644 43.2275 48.1644 43.2275C49.8858 43.2719 51.526 44.3544 52.9736 46.0758C53.8935 47.1998 54.6816 48.4256 55.3225 49.729C57.8944 54.8158 59.2342 61.8041 58.1847 66.5157Z" fill="#6FC3A0"/>
<path opacity="0.4" d="M47.2796 48.3721C47.2796 48.3721 50.5867 50.9237 52.0178 52.9645C53.4489 55.0054 53.7747 58.8031 53.7747 58.8031C53.7747 58.8031 48.3241 54.5085 45.8459 53.9026C43.3678 53.2967 47.2796 48.3721 47.2796 48.3721Z" fill="#364E4C"/>
<path d="M47.2795 48.3722V68.4001C47.2795 68.8264 47.1101 69.2352 46.8087 69.5367C46.5073 69.8381 46.0984 70.0074 45.6722 70.0074H29.5636C29.1372 70.0074 28.7283 69.8381 28.4267 69.5367C28.125 69.2354 27.9554 68.8265 27.9551 68.4001V48.3722C27.9551 47.9456 28.1246 47.5365 28.4262 47.2348C28.7279 46.9331 29.137 46.7637 29.5636 46.7637H45.6747C46.1007 46.7647 46.5088 46.9346 46.8097 47.2362C47.1105 47.5377 47.2795 47.9463 47.2795 48.3722V48.3722Z" fill="#EC7571"/>
<path d="M53.7741 58.8031C53.7741 58.8031 53.0858 57.9766 54.4903 58.2732C55.8948 58.5699 57.5046 59.8083 58.7849 62.9887C60.0652 66.1691 58.3374 67.0348 58.3374 67.0348C58.3374 67.0348 57.4818 60.4827 53.7741 58.8031Z" fill="#CEEAE9"/>
<path opacity="0.4" d="M47.2795 56.1982V68.4026C47.2795 68.8289 47.1101 69.2377 46.8087 69.5391C46.5073 69.8406 46.0984 70.0099 45.6722 70.0099H29.5636C29.1372 70.0099 28.7283 69.8406 28.4267 69.5392C28.125 69.2378 27.9554 68.829 27.9551 68.4026V65.3604C31.7794 66.628 36.3098 67.0513 38.8234 63.426C41.5386 59.5003 44.5415 57.2972 47.2795 56.1982Z" fill="#364E4C"/>
<path d="M37.6144 55.3723C38.2794 55.3723 38.8186 54.8331 38.8186 54.1681C38.8186 53.503 38.2794 52.9639 37.6144 52.9639C36.9493 52.9639 36.4102 53.503 36.4102 54.1681C36.4102 54.8331 36.9493 55.3723 37.6144 55.3723Z" fill="#FABC68"/>
<path d="M55.3222 49.7225C54.4653 50.6022 53.0291 51.3488 52.569 51.4262C51.9086 51.5364 51.4954 51.288 50.9718 49.829C50.4483 48.37 49.9806 47.7641 51.1645 47.1861C51.7969 46.8638 52.4019 46.4903 52.9734 46.0693C53.8933 47.1934 54.6814 48.4191 55.3222 49.7225V49.7225Z" fill="#CEEAE9"/>
<path d="M52.3202 49.3124C52.6255 49.3124 52.8729 49.0649 52.8729 48.7597C52.8729 48.4545 52.6255 48.207 52.3202 48.207C52.015 48.207 51.7676 48.4545 51.7676 48.7597C51.7676 49.0649 52.015 49.3124 52.3202 49.3124Z" fill="#EC7571"/>
<path d="M53.7737 58.8035C53.7737 58.8035 53.4163 58.0264 55.1085 58.7933C56.8007 59.5602 58.7845 63.6494 58.7845 65.8386C58.7845 68.0277 57.7362 68.7261 57.7362 68.7261C57.7362 68.7261 57.3394 63.529 56.0592 61.5427C54.7789 59.5564 53.7737 58.8035 53.7737 58.8035Z" fill="white"/>
<path d="M53.7734 58.8033C53.7734 58.8033 58.6524 65.4011 56.7358 70.9874C56.7358 70.9874 58.1238 70.0912 57.793 66.0032C57.4621 61.9153 54.8382 58.5828 53.7734 58.8033Z" fill="#CEEAE9"/>
<path d="M46.3176 54.2059C46.3176 54.2059 49.7046 54.7623 49.8073 57.5916C49.91 60.4208 47.9288 60.7301 47.1821 60.1103C46.4355 59.4904 46.0261 59.3675 45.5508 59.3054C45.0754 59.2432 44.704 58.9745 45.2617 58.5828C45.8195 58.1911 46.2124 58.29 46.2124 58.29C46.2124 58.29 45.3441 57.8945 44.6432 58.29C43.9422 58.6855 43.9954 57.6245 44.5532 57.2759C45.1109 56.9274 46.3569 57.0668 46.3569 57.0668C46.3569 57.0668 46.3177 56.7689 45.2351 56.7131C44.1146 56.6561 43.5809 56.8145 43.7267 56.3392C43.8725 55.8639 44.2502 55.3429 45.3441 55.4265L46.4393 55.5089C46.4393 55.5089 45.552 54.9715 44.7256 55.0133C43.8991 55.0551 44.0512 54.3149 44.8523 54.1704C44.8587 54.1678 45.7574 54.0651 46.3176 54.2059Z" fill="#F7AC86"/>
<path d="M32.5047 93.5938H31.5527V95.8146H32.5047V93.5938Z" fill="#6FC3A0"/>
<path d="M8.61328 75.0088C8.61328 75.0088 15.9653 76.1572 26.2328 63.418" stroke="#364E4C" stroke-width="0.5" stroke-miterlimit="10"/>
<path d="M48.5527 60.2725C48.5527 60.2725 50.5276 74.529 56.2698 71.8075" stroke="#364E4C" stroke-width="0.5" stroke-miterlimit="10"/>
<path d="M30.4006 31.5337C30.4881 31.5337 30.5591 31.4628 30.5591 31.3752C30.5591 31.2877 30.4881 31.2168 30.4006 31.2168C30.3131 31.2168 30.2422 31.2877 30.2422 31.3752C30.2422 31.4628 30.3131 31.5337 30.4006 31.5337Z" fill="white"/>
<path d="M38.2879 31.7784C38.4826 31.7784 38.6403 31.3556 38.6403 30.834C38.6403 30.3125 38.4826 29.8896 38.2879 29.8896C38.0933 29.8896 37.9355 30.3125 37.9355 30.834C37.9355 31.3556 38.0933 31.7784 38.2879 31.7784Z" fill="#08080E"/>
<path d="M38.2874 30.3882C38.3749 30.3882 38.4458 30.3172 38.4458 30.2297C38.4458 30.1422 38.3749 30.0713 38.2874 30.0713C38.1998 30.0713 38.1289 30.1422 38.1289 30.2297C38.1289 30.3172 38.1998 30.3882 38.2874 30.3882Z" fill="white"/>
<path d="M27.8021 57.5775C27.8021 57.5775 24.4151 58.1339 24.3124 60.9632C24.2098 63.7924 26.191 64.1017 26.9338 63.4819C27.6766 62.862 28.0911 62.7391 28.5652 62.677C29.0393 62.6149 29.4119 62.3461 28.8542 61.9544C28.2965 61.5628 27.9048 61.6616 27.9048 61.6616C27.9048 61.6616 28.7718 61.2661 29.4741 61.6616C30.1763 62.0571 30.1205 60.9961 29.5641 60.6476C29.0076 60.299 27.7603 60.4308 27.7603 60.4308C27.7603 60.4308 27.7996 60.1329 28.8808 60.0771C30.0014 60.0201 30.535 60.1786 30.3905 59.7032C30.246 59.2279 29.867 58.7081 28.7718 58.7905L27.6779 58.8729C27.6779 58.8729 28.5652 58.3355 29.3917 58.3773C30.2181 58.4191 30.066 57.6789 29.2649 57.5344C29.2611 57.5394 28.3624 57.4368 27.8021 57.5775Z" fill="#F7AC86"/>
<path d="M34.2621 38.8823C34.2505 39.0017 34.2003 39.1141 34.1191 39.2024C34.0379 39.2907 33.9301 39.3501 33.8121 39.3716C33.4064 39.4818 32.7587 39.383 31.9804 39.2689C30.8497 39.1028 29.8255 38.9634 29.7051 38.4183C29.6893 38.3518 29.6872 38.2829 29.6987 38.2155C29.8027 37.4968 30.9105 37.0645 32.1705 37.2483C33.4305 37.4321 34.3673 38.1623 34.2621 38.8823Z" fill="url(#paint26_linear_217_8951)"/>
<path d="M33.8121 39.3688C33.4064 39.4791 32.7587 39.3802 31.9804 39.2661C30.8497 39.1001 29.8255 38.9606 29.7051 38.4156C30.1614 38.0999 30.922 37.9554 31.7472 38.0771C32.8056 38.2318 33.6359 38.773 33.8121 39.3688Z" fill="#EC7571"/>
<defs>
<linearGradient id="paint0_linear_217_8951" x1="10.3362" y1="18.9364" x2="10.3362" y2="14.4276" gradientUnits="userSpaceOnUse">
<stop stop-color="#44685E"/>
<stop offset="0.87" stop-color="#1B232A"/>
</linearGradient>
<linearGradient id="paint1_linear_217_8951" x1="798.494" y1="1082.96" x2="830.287" y2="931.473" gradientUnits="userSpaceOnUse">
<stop stop-color="#44685E"/>
<stop offset="0.87" stop-color="#1B232A"/>
</linearGradient>
<linearGradient id="paint2_linear_217_8951" x1="69.8606" y1="435.403" x2="69.8606" y2="369.356" gradientUnits="userSpaceOnUse">
<stop stop-color="#44685E"/>
<stop offset="0.87" stop-color="#1B232A"/>
</linearGradient>
<linearGradient id="paint3_linear_217_8951" x1="150.452" y1="848.216" x2="150.452" y2="790.187" gradientUnits="userSpaceOnUse">
<stop stop-color="#44685E"/>
<stop offset="0.87" stop-color="#1B232A"/>
</linearGradient>
<linearGradient id="paint4_linear_217_8951" x1="497.206" y1="374.551" x2="497.206" y2="310.813" gradientUnits="userSpaceOnUse">
<stop stop-color="#44685E"/>
<stop offset="0.87" stop-color="#1B232A"/>
</linearGradient>
<linearGradient id="paint5_linear_217_8951" x1="579.069" y1="630.312" x2="579.069" y2="543.211" gradientUnits="userSpaceOnUse">
<stop stop-color="#44685E"/>
<stop offset="0.87" stop-color="#1B232A"/>
</linearGradient>
<linearGradient id="paint6_linear_217_8951" x1="559.788" y1="901.841" x2="559.788" y2="824.801" gradientUnits="userSpaceOnUse">
<stop stop-color="#44685E"/>
<stop offset="0.87" stop-color="#1B232A"/>
</linearGradient>
<linearGradient id="paint7_linear_217_8951" x1="24.2933" y1="98.9129" x2="24.2933" y2="89.2539" gradientUnits="userSpaceOnUse">
<stop stop-color="white"/>
<stop offset="0.38" stop-color="#9AD2B6"/>
<stop offset="0.99" stop-color="#5F9E85"/>
</linearGradient>
<linearGradient id="paint8_linear_217_8951" x1="4401.01" y1="10691.9" x2="4401.01" y2="9336.87" gradientUnits="userSpaceOnUse">
<stop stop-color="white"/>
<stop offset="0.38" stop-color="#9AD2B6"/>
<stop offset="0.99" stop-color="#5F9E85"/>
</linearGradient>
<linearGradient id="paint9_linear_217_8951" x1="2008.61" y1="7266.55" x2="2008.61" y2="6641.61" gradientUnits="userSpaceOnUse">
<stop stop-color="white"/>
<stop offset="0.38" stop-color="#9AD2B6"/>
<stop offset="0.99" stop-color="#5F9E85"/>
</linearGradient>
<linearGradient id="paint10_linear_217_8951" x1="323.636" y1="2156.42" x2="323.636" y2="2104.65" gradientUnits="userSpaceOnUse">
<stop stop-color="white"/>
<stop offset="0.38" stop-color="#9AD2B6"/>
<stop offset="0.99" stop-color="#5F9E85"/>
</linearGradient>
<linearGradient id="paint11_linear_217_8951" x1="589.666" y1="2912.28" x2="589.666" y2="2795.05" gradientUnits="userSpaceOnUse">
<stop stop-color="white"/>
<stop offset="0.38" stop-color="#9AD2B6"/>
<stop offset="0.99" stop-color="#5F9E85"/>
</linearGradient>
<linearGradient id="paint12_linear_217_8951" x1="789.74" y1="2963.6" x2="789.74" y2="2846.38" gradientUnits="userSpaceOnUse">
<stop stop-color="white"/>
<stop offset="0.38" stop-color="#9AD2B6"/>
<stop offset="0.99" stop-color="#5F9E85"/>
</linearGradient>
<linearGradient id="paint13_linear_217_8951" x1="939.272" y1="2889.22" x2="939.272" y2="2772" gradientUnits="userSpaceOnUse">
<stop stop-color="white"/>
<stop offset="0.38" stop-color="#9AD2B6"/>
<stop offset="0.99" stop-color="#5F9E85"/>
</linearGradient>
<linearGradient id="paint14_linear_217_8951" x1="342.022" y1="138.597" x2="342.022" y2="255.82" gradientUnits="userSpaceOnUse">
<stop stop-color="white"/>
<stop offset="0.38" stop-color="#9AD2B6"/>
<stop offset="0.99" stop-color="#5F9E85"/>
</linearGradient>
<linearGradient id="paint15_linear_217_8951" x1="496.673" y1="331.062" x2="496.673" y2="448.284" gradientUnits="userSpaceOnUse">
<stop stop-color="white"/>
<stop offset="0.38" stop-color="#9AD2B6"/>
<stop offset="0.99" stop-color="#5F9E85"/>
</linearGradient>
<linearGradient id="paint16_linear_217_8951" x1="959.472" y1="270.543" x2="959.472" y2="387.727" gradientUnits="userSpaceOnUse">
<stop stop-color="white"/>
<stop offset="0.38" stop-color="#9AD2B6"/>
<stop offset="0.99" stop-color="#5F9E85"/>
</linearGradient>
<linearGradient id="paint17_linear_217_8951" x1="185.854" y1="2387.71" x2="185.854" y2="2322.22" gradientUnits="userSpaceOnUse">
<stop stop-color="white"/>
<stop offset="0.38" stop-color="#9AD2B6"/>
<stop offset="0.99" stop-color="#5F9E85"/>
</linearGradient>
<linearGradient id="paint18_linear_217_8951" x1="258.418" y1="2345.95" x2="258.418" y2="2277.67" gradientUnits="userSpaceOnUse">
<stop stop-color="white"/>
<stop offset="0.38" stop-color="#9AD2B6"/>
<stop offset="0.99" stop-color="#5F9E85"/>
</linearGradient>
<linearGradient id="paint19_linear_217_8951" x1="413.367" y1="74.8034" x2="413.367" y2="113.712" gradientUnits="userSpaceOnUse">
<stop stop-color="white"/>
<stop offset="0.38" stop-color="#9AD2B6"/>
<stop offset="0.99" stop-color="#5F9E85"/>
</linearGradient>
<linearGradient id="paint20_linear_217_8951" x1="438.804" y1="1751.4" x2="438.804" y2="1712.5" gradientUnits="userSpaceOnUse">
<stop stop-color="white"/>
<stop offset="0.38" stop-color="#9AD2B6"/>
<stop offset="0.99" stop-color="#5F9E85"/>
</linearGradient>
<linearGradient id="paint21_linear_217_8951" x1="16602.9" y1="28588.5" x2="16602.9" y2="3662.83" gradientUnits="userSpaceOnUse">
<stop stop-color="#44685E"/>
<stop offset="0.87" stop-color="#1B232A"/>
</linearGradient>
<linearGradient id="paint22_linear_217_8951" x1="500.151" y1="3001.91" x2="500.151" y2="2112.07" gradientUnits="userSpaceOnUse">
<stop stop-color="#44685E"/>
<stop offset="0.87" stop-color="#1B232A"/>
</linearGradient>
<linearGradient id="paint23_linear_217_8951" x1="845.833" y1="2523.98" x2="845.833" y2="1776.39" gradientUnits="userSpaceOnUse">
<stop stop-color="#44685E"/>
<stop offset="0.87" stop-color="#1B232A"/>
</linearGradient>
<linearGradient id="paint24_linear_217_8951" x1="841.489" y1="590.684" x2="908.843" y2="590.684" gradientUnits="userSpaceOnUse">
<stop stop-color="#44685E"/>
<stop offset="0.87" stop-color="#1B232A"/>
</linearGradient>
<linearGradient id="paint25_linear_217_8951" x1="943.116" y1="308.175" x2="995.72" y2="308.175" gradientUnits="userSpaceOnUse">
<stop stop-color="#44685E"/>
<stop offset="0.87" stop-color="#1B232A"/>
</linearGradient>
<linearGradient id="paint26_linear_217_8951" x1="1561.18" y1="774.605" x2="1368.84" y2="720.925" gradientUnits="userSpaceOnUse">
<stop stop-color="#44685E"/>
<stop offset="0.87" stop-color="#1B232A"/>
</linearGradient>
</defs>
</svg>
