<svg width="115" height="48" viewBox="0 0 115 48" fill="none" xmlns="http://www.w3.org/2000/svg">
<g clip-path="url(#clip0_103_5913)">
<mask id="mask0_103_5913" style="mask-type:alpha" maskUnits="userSpaceOnUse" x="0" y="0" width="115" height="48">
<path d="M115 0.0722885H0V48H115V0.0722885Z" fill="#C4C4C4"/>
</mask>
<g mask="url(#mask0_103_5913)">
<path d="M61.3746 6.97041V21.5855H57.7441V15.5688H52.0968V21.5855H48.4663V6.97041H52.0968V12.6957H57.7441V6.97041H61.3746ZM75.1628 15.5896C75.1628 15.9227 75.1416 16.2697 75.0991 16.6306H66.8828C66.9394 17.3523 67.173 17.9075 67.5834 18.2961C68.008 18.6708 68.5247 18.8582 69.1333 18.8582C70.0391 18.8582 70.669 18.4835 71.0228 17.734H74.8868C74.6887 18.4974 74.3277 19.1844 73.804 19.7951C73.2945 20.4058 72.6505 20.8846 71.872 21.2316C71.0936 21.5786 70.2231 21.7521 69.2607 21.7521C68.1 21.7521 67.0668 21.5092 66.161 21.0234C65.2551 20.5376 64.5474 19.8437 64.0379 18.9415C63.5283 18.0393 63.2736 16.9845 63.2736 15.777C63.2736 14.5694 63.5213 13.5146 64.0167 12.6124C64.5262 11.7103 65.2339 11.0163 66.1397 10.5305C67.0456 10.0447 68.0859 9.80183 69.2607 9.80183C70.4071 9.80183 71.4262 10.0378 72.3179 10.5097C73.2096 10.9816 73.9031 11.6547 74.3985 12.5292C74.908 13.4036 75.1628 14.4237 75.1628 15.5896ZM71.4474 14.6527C71.4474 14.042 71.2351 13.5562 70.8105 13.1954C70.3859 12.8345 69.8551 12.6541 69.2182 12.6541C68.6096 12.6541 68.093 12.8276 67.6683 13.1746C67.2579 13.5215 67.0031 14.0143 66.904 14.6527H71.4474ZM80.7088 6.17928V21.5855H77.0783V6.17928H80.7088ZM86.9701 6.17928V21.5855H83.3396V6.17928H86.9701ZM94.9935 21.7521C93.8329 21.7521 92.7855 21.5092 91.8514 21.0234C90.9314 20.5376 90.2025 19.8437 89.6646 18.9415C89.1409 18.0393 88.8791 16.9845 88.8791 15.777C88.8791 14.5833 89.148 13.5354 89.6858 12.6333C90.2237 11.7172 90.9597 11.0163 91.8938 10.5305C92.828 10.0447 93.8754 9.80183 95.036 9.80183C96.1966 9.80183 97.244 10.0447 98.1782 10.5305C99.1123 11.0163 99.8483 11.7172 100.386 12.6333C100.924 13.5354 101.193 14.5833 101.193 15.777C101.193 16.9706 100.917 18.0254 100.365 18.9415C99.8271 19.8437 99.084 20.5376 98.1357 21.0234C97.2015 21.5092 96.1542 21.7521 94.9935 21.7521ZM94.9935 18.6708C95.6871 18.6708 96.2745 18.421 96.7557 17.9214C97.2511 17.4217 97.4988 16.7069 97.4988 15.777C97.4988 14.847 97.2582 14.1322 96.7769 13.6326C96.3098 13.1329 95.7295 12.8831 95.036 12.8831C94.3283 12.8831 93.7409 13.1329 93.2738 13.6326C92.8068 14.1184 92.5732 14.8332 92.5732 15.777C92.5732 16.7069 92.7997 17.4217 93.2526 17.9214C93.7197 18.421 94.3 18.6708 94.9935 18.6708ZM68.9752 28.368L65.09 42.9831H60.6952L58.3174 33.3646L55.8546 42.9831H51.4598L47.6808 28.368H51.566L53.7103 39.0067L56.3641 28.368H60.3555L62.9032 39.0067L65.0688 28.368H68.9752ZM76.1884 43.1497C75.0278 43.1497 73.9804 42.9068 73.0462 42.421C72.1262 41.9352 71.3973 41.2413 70.8595 40.3391C70.3358 39.4369 70.0739 38.3821 70.0739 37.1746C70.0739 35.9809 70.3428 34.933 70.8807 34.0308C71.4185 33.1148 72.1545 32.4139 73.0887 31.9281C74.0228 31.4423 75.0702 31.1994 76.2308 31.1994C77.3915 31.1994 78.4388 31.4423 79.373 31.9281C80.3072 32.4139 81.0431 33.1148 81.581 34.0308C82.1188 34.933 82.3878 35.9809 82.3878 37.1746C82.3878 38.3682 82.1118 39.423 81.5598 40.3391C81.0219 41.2413 80.2788 41.9352 79.3305 42.421C78.3964 42.9068 77.349 43.1497 76.1884 43.1497ZM76.1884 40.0684C76.8819 40.0684 77.4693 39.8186 77.9505 39.3189C78.4459 38.8193 78.6936 38.1045 78.6936 37.1746C78.6936 36.2446 78.453 35.5298 77.9718 35.0302C77.5047 34.5305 76.9244 34.2807 76.2308 34.2807C75.5231 34.2807 74.9358 34.5305 74.4687 35.0302C74.0016 35.516 73.7681 36.2307 73.7681 37.1746C73.7681 38.1045 73.9945 38.8193 74.4475 39.3189C74.9145 39.8186 75.4948 40.0684 76.1884 40.0684ZM87.9443 33.3022C88.3689 32.6637 88.8997 32.1641 89.5366 31.8032C90.1736 31.4284 90.8813 31.2411 91.6597 31.2411V35.0094H90.6619C89.756 35.0094 89.0766 35.2037 88.6237 35.5923C88.1708 35.967 87.9443 36.6333 87.9443 37.5909V42.9831H84.3139V31.366H87.9443V33.3022ZM97.0258 27.5769V42.9831H93.3953V27.5769H97.0258ZM98.9348 37.1537C98.9348 35.9601 99.1613 34.9122 99.6142 34.01C100.081 33.1079 100.711 32.4139 101.504 31.9281C102.296 31.4423 103.181 31.1994 104.158 31.1994C104.936 31.1994 105.644 31.359 106.281 31.6783C106.932 31.9975 107.441 32.4278 107.809 32.9691V27.5769H111.44V42.9831H107.809V41.3176C107.47 41.8728 106.981 42.3169 106.344 42.65C105.722 42.9831 104.993 43.1497 104.158 43.1497C103.181 43.1497 102.296 42.9068 101.504 42.421C100.711 41.9214 100.081 41.2204 99.6142 40.3183C99.1613 39.4022 98.9348 38.3474 98.9348 37.1537ZM107.809 37.1746C107.809 36.2863 107.554 35.5854 107.045 35.0718C106.55 34.5583 105.941 34.3015 105.219 34.3015C104.497 34.3015 103.882 34.5583 103.372 35.0718C102.877 35.5715 102.629 36.2655 102.629 37.1537C102.629 38.042 102.877 38.7499 103.372 39.2773C103.882 39.7908 104.497 40.0476 105.219 40.0476C105.941 40.0476 106.55 39.7908 107.045 39.2773C107.554 38.7638 107.809 38.0628 107.809 37.1746Z" fill="white"/>
<path d="M27.9439 41.6C36.254 41.6 42.9906 34.9141 42.9906 26.6667C42.9906 18.4192 36.254 11.7333 27.9439 11.7333C19.6338 11.7333 12.8972 18.4192 12.8972 26.6667C12.8972 34.9141 19.6338 41.6 27.9439 41.6Z" fill="white"/>
<path d="M39.1 11.2884C40.6878 11.2884 41.975 10.0261 41.975 8.46908C41.975 6.91204 40.6878 5.6498 39.1 5.6498C37.5122 5.6498 36.225 6.91204 36.225 8.46908C36.225 10.0261 37.5122 11.2884 39.1 11.2884Z" fill="#5ED5A8"/>
</g>
</g>
<defs>
<clipPath id="clip0_103_5913">
<rect width="115" height="48" fill="white"/>
</clipPath>
</defs>
</svg>
